<?xml version="1.0" standalone="no"?><!DOCTYPE svg PUBLIC "-//W3C//DTD SVG 1.1//EN" "http://www.w3.org/Graphics/SVG/1.1/DTD/svg11.dtd"><svg t="1709018405693" class="icon" viewBox="0 0 1024 1024" version="1.1" xmlns="http://www.w3.org/2000/svg" p-id="30623" xmlns:xlink="http://www.w3.org/1999/xlink" width="128" height="128"><path d="M512 512m-512 0a512 512 0 1 0 1024 0 512 512 0 1 0-1024 0Z" fill="#F54335" opacity=".406" p-id="30624"></path><path d="M512 128a384 384 0 1 1-384 384 384 384 0 0 1 384-384z" fill="#F54335" p-id="30625"></path><path d="M644.864 659.84a334.08 334.08 0 0 0 70.016 38.4l-16 37.76a321.664 321.664 0 0 1-88.576-50.56 204.16 204.16 0 0 1-101.248 25.6 195.392 195.392 0 0 1-101.568-27.008 180.288 180.288 0 0 1-70.144-76.032 241.984 241.984 0 0 1-24.64-110.272 247.232 247.232 0 0 1 24.768-111.104 174.272 174.272 0 0 1 70.4-76.224 202.112 202.112 0 0 1 102.4-26.176 198.4 198.4 0 0 1 102.912 27.136 177.28 177.28 0 0 1 69.824 76.096 245.76 245.76 0 0 1 24.064 110.08 256 256 0 0 1-15.488 91.264 192 192 0 0 1-46.72 71.04z m-120.064-69.76a202.048 202.048 0 0 1 77.888 39.36 169.792 169.792 0 0 0 48.064-131.904 209.536 209.536 0 0 0-17.152-87.424 130.88 130.88 0 0 0-49.6-58.112 134.976 134.976 0 0 0-73.536-20.672 134.4 134.4 0 0 0-101.248 41.792 173.376 173.376 0 0 0-40.192 124.736 175.36 175.36 0 0 0 39.808 123.456 132.352 132.352 0 0 0 101.632 43.008 139.776 139.776 0 0 0 55.104-10.944 176.896 176.896 0 0 0-54.016-23.616z" fill="#FFFFFF" p-id="30626"></path></svg>